# xmcd
#
# Track frame offsets:
#	150
#	3844
#	17298
#	33791
#	50381
#	70026
#	86875
#	105104
#	121840
#	139080
#	160184
#	178388
#
# Disc length: 2603 seconds
#
# Revision: 0
# Processed by: cddbd v1.5.2PL0 Copyright (c) Steve Scherf et al.
# Submitted via: EZCDAudioConverter 2.1.7.1
#
DISCID=860a290c
DTITLE=Jeff Bernat - Modern Renaissance
DYEAR=2013
DGENRE=R&B/Soul
TTITLE0=Intro
TTITLE1=First Class
TTITLE2=Workflow feat. Dumbfoundead
TTITLE3=Higher
TTITLE4=Heaven Sent
TTITLE5=Pillow Talk
TTITLE6=Boogie Down
TTITLE7=Lavish
TTITLE8=Mind vs Heart
TTITLE9=Dream Team
TTITLE10=Plenty of Reasons
TTITLE11=Various Places
EXTD=
EXTT0=
EXTT1=
EXTT2=
EXTT3=
EXTT4=
EXTT5=
EXTT6=
EXTT7=
EXTT8=
EXTT9=
EXTT10=
EXTT11=
PLAYORDER=
